<svg width="36" height="24" viewBox="0 0 36 24" fill="none" xmlns="http://www.w3.org/2000/svg">
<g clip-path="url(#clip0_137_33594)">
<rect width="36" height="24" fill="#FF4E4E"/>
<path d="M0 0L48 0L48 24L0 24L0 0Z" fill="#1EB53A"/>
<path d="M0 0L48 0V12L0 12L0 0Z" fill="#0099B5"/>
<path d="M0 7.68005L48 7.68005V16.3201L0 16.3201L0 7.68005Z" fill="#CE1126"/>
<path d="M0 8L48 8V15.68L0 15.68L0 8Z" fill="white"/>
<path d="M6.71984 6.71996C8.31042 6.71996 9.59984 5.43054 9.59984 3.83996C9.59984 2.24938 8.31042 0.959961 6.71984 0.959961C5.12926 0.959961 3.83984 2.24938 3.83984 3.83996C3.83984 5.43054 5.12926 6.71996 6.71984 6.71996Z" fill="white"/>
<path d="M7.6798 6.71996C9.27038 6.71996 10.5598 5.43054 10.5598 3.83996C10.5598 2.24938 9.27038 0.959961 7.6798 0.959961C6.08922 0.959961 4.7998 2.24938 4.7998 3.83996C4.7998 5.43054 6.08922 6.71996 7.6798 6.71996Z" fill="#0099B5"/>
<path d="M13.056 5.56812L12.8779 6.1158L13.152 6.20459" fill="white"/>
<path d="M13.056 5.56824L13.234 6.11592L12.96 6.20472" fill="white"/>
<path d="M13.6038 5.96631H13.0278V6.25431" fill="white"/>
<path d="M13.6038 5.96619L13.1377 6.30459L12.9683 6.07179" fill="white"/>
<path d="M12.5083 5.96606L12.9744 6.30446L13.1438 6.07166" fill="white"/>
<path d="M12.5083 5.96606H13.0843V6.25406" fill="white"/>
<path d="M13.3945 6.61018L13.2165 6.0625L12.9424 6.1513" fill="white"/>
<path d="M13.3943 6.61014L12.9282 6.27174L13.0977 6.03894" fill="white"/>
<path d="M12.7178 6.61014L13.1839 6.27174L13.0144 6.03894" fill="white"/>
<path d="M12.7178 6.61018L12.8959 6.0625L13.1699 6.1513" fill="white"/>
<path d="M13.056 3.26416L12.8779 3.81184L13.152 3.90064" fill="white"/>
<path d="M13.056 3.26428L13.234 3.81196L12.96 3.90076" fill="white"/>
<path d="M13.6038 3.66211H13.0278V3.95011" fill="white"/>
<path d="M13.6038 3.66211L13.1377 4.00051L12.9683 3.76771" fill="white"/>
<path d="M12.5083 3.66199L12.9744 4.00039L13.1438 3.76759" fill="white"/>
<path d="M12.5083 3.66199H13.0843V3.94999" fill="white"/>
<path d="M13.3945 4.30622L13.2165 3.75854L12.9424 3.84734" fill="white"/>
<path d="M13.3943 4.30619L12.9282 3.96779L13.0977 3.73499" fill="white"/>
<path d="M12.7178 4.30619L13.1839 3.96779L13.0144 3.73499" fill="white"/>
<path d="M12.7178 4.30622L12.8959 3.75854L13.1699 3.84734" fill="white"/>
<path d="M13.056 0.959961L12.8779 1.50764L13.152 1.59644" fill="white"/>
<path d="M13.056 0.959961L13.234 1.50764L12.96 1.59644" fill="white"/>
<path d="M13.6038 1.35791H13.0278V1.64591" fill="white"/>
<path d="M13.6038 1.35791L13.1377 1.69631L12.9683 1.46351" fill="white"/>
<path d="M12.5083 1.35791L12.9744 1.69631L13.1438 1.46351" fill="white"/>
<path d="M12.5083 1.35791H13.0843V1.64591" fill="white"/>
<path d="M13.3945 2.00215L13.2165 1.45447L12.9424 1.54327" fill="white"/>
<path d="M13.3943 2.00211L12.9282 1.66371L13.0977 1.43091" fill="white"/>
<path d="M12.7178 2.00211L13.1839 1.66371L13.0144 1.43091" fill="white"/>
<path d="M12.7178 2.00215L12.8959 1.45447L13.1699 1.54327" fill="white"/>
<path d="M15.3602 5.56812L15.1821 6.1158L15.4562 6.20459" fill="white"/>
<path d="M15.3602 5.56824L15.5382 6.11592L15.2642 6.20472" fill="white"/>
<path d="M15.9075 5.96631H15.3315V6.25431" fill="white"/>
<path d="M15.9075 5.96619L15.4414 6.30459L15.272 6.07179" fill="white"/>
<path d="M14.8125 5.96606L15.2786 6.30446L15.448 6.07166" fill="white"/>
<path d="M14.8125 5.96606H15.3885V6.25406" fill="white"/>
<path d="M15.6983 6.61018L15.5202 6.0625L15.2461 6.1513" fill="white"/>
<path d="M15.6985 6.61014L15.2324 6.27174L15.4019 6.03894" fill="white"/>
<path d="M15.0215 6.61014L15.4876 6.27174L15.3181 6.03894" fill="white"/>
<path d="M15.0215 6.61018L15.1996 6.0625L15.4736 6.1513" fill="white"/>
<path d="M15.3602 3.26416L15.1821 3.81184L15.4562 3.90064" fill="white"/>
<path d="M15.3602 3.26428L15.5382 3.81196L15.2642 3.90076" fill="white"/>
<path d="M15.9075 3.66211H15.3315V3.95011" fill="white"/>
<path d="M15.9075 3.66211L15.4414 4.00051L15.272 3.76771" fill="white"/>
<path d="M14.8125 3.66199L15.2786 4.00039L15.448 3.76759" fill="white"/>
<path d="M14.8125 3.66199H15.3885V3.94999" fill="white"/>
<path d="M15.6983 4.30622L15.5202 3.75854L15.2461 3.84734" fill="white"/>
<path d="M15.6985 4.30619L15.2324 3.96779L15.4019 3.73499" fill="white"/>
<path d="M15.0215 4.30619L15.4876 3.96779L15.3181 3.73499" fill="white"/>
<path d="M15.0215 4.30622L15.1996 3.75854L15.4736 3.84734" fill="white"/>
<path d="M15.3602 0.959961L15.1821 1.50764L15.4562 1.59644" fill="white"/>
<path d="M15.3602 0.959961L15.5382 1.50764L15.2642 1.59644" fill="white"/>
<path d="M15.9075 1.35791H15.3315V1.64591" fill="white"/>
<path d="M15.9075 1.35791L15.4414 1.69631L15.272 1.46351" fill="white"/>
<path d="M14.8125 1.35791L15.2786 1.69631L15.448 1.46351" fill="white"/>
<path d="M14.8125 1.35791H15.3885V1.64591" fill="white"/>
<path d="M15.6983 2.00215L15.5202 1.45447L15.2461 1.54327" fill="white"/>
<path d="M15.6985 2.00211L15.2324 1.66371L15.4019 1.43091" fill="white"/>
<path d="M15.0215 2.00211L15.4876 1.66371L15.3181 1.43091" fill="white"/>
<path d="M15.0215 2.00215L15.1996 1.45447L15.4736 1.54327" fill="white"/>
<path d="M17.6639 5.56812L17.4858 6.1158L17.7599 6.20459" fill="white"/>
<path d="M17.6639 5.56824L17.842 6.11592L17.5679 6.20472" fill="white"/>
<path d="M18.2117 5.96631H17.6357V6.25431" fill="white"/>
<path d="M18.2117 5.96619L17.7456 6.30459L17.5762 6.07179" fill="white"/>
<path d="M17.1162 5.96606L17.5823 6.30446L17.7517 6.07166" fill="white"/>
<path d="M17.1162 5.96606H17.6922V6.25406" fill="white"/>
<path d="M18.0025 6.61018L17.8244 6.0625L17.5503 6.1513" fill="white"/>
<path d="M18.0022 6.61014L17.5361 6.27174L17.7056 6.03894" fill="white"/>
<path d="M17.3257 6.61014L17.7918 6.27174L17.6223 6.03894" fill="white"/>
<path d="M17.3257 6.61018L17.5038 6.0625L17.7778 6.1513" fill="white"/>
<path d="M17.6639 3.26416L17.4858 3.81184L17.7599 3.90064" fill="white"/>
<path d="M17.6639 3.26428L17.842 3.81196L17.5679 3.90076" fill="white"/>
<path d="M18.2117 3.66211H17.6357V3.95011" fill="white"/>
<path d="M18.2117 3.66211L17.7456 4.00051L17.5762 3.76771" fill="white"/>
<path d="M17.1162 3.66199L17.5823 4.00039L17.7517 3.76759" fill="white"/>
<path d="M17.1162 3.66199H17.6922V3.94999" fill="white"/>
<path d="M18.0025 4.30622L17.8244 3.75854L17.5503 3.84734" fill="white"/>
<path d="M18.0022 4.30619L17.5361 3.96779L17.7056 3.73499" fill="white"/>
<path d="M17.3257 4.30619L17.7918 3.96779L17.6223 3.73499" fill="white"/>
<path d="M17.3257 4.30622L17.5038 3.75854L17.7778 3.84734" fill="white"/>
<path d="M17.6639 0.959961L17.4858 1.50764L17.7599 1.59644" fill="white"/>
<path d="M17.6639 0.959961L17.842 1.50764L17.5679 1.59644" fill="white"/>
<path d="M18.2117 1.35791H17.6357V1.64591" fill="white"/>
<path d="M18.2117 1.35791L17.7456 1.69631L17.5762 1.46351" fill="white"/>
<path d="M17.1162 1.35791L17.5823 1.69631L17.7517 1.46351" fill="white"/>
<path d="M17.1162 1.35791H17.6922V1.64591" fill="white"/>
<path d="M18.0025 2.00215L17.8244 1.45447L17.5503 1.54327" fill="white"/>
<path d="M18.0022 2.00211L17.5361 1.66371L17.7056 1.43091" fill="white"/>
<path d="M17.3257 2.00211L17.7918 1.66371L17.6223 1.43091" fill="white"/>
<path d="M17.3257 2.00215L17.5038 1.45447L17.7778 1.54327" fill="white"/>
<path d="M8.4481 5.56812L8.27002 6.1158L8.5441 6.20459" fill="white"/>
<path d="M8.44805 5.56824L8.62613 6.11592L8.35205 6.20472" fill="white"/>
<path d="M8.99592 5.96631H8.41992V6.25431" fill="white"/>
<path d="M8.99587 5.96619L8.52979 6.30459L8.36035 6.07179" fill="white"/>
<path d="M7.90039 5.96606L8.36647 6.30446L8.53591 6.07166" fill="white"/>
<path d="M7.90039 5.96606H8.47639V6.25406" fill="white"/>
<path d="M8.78663 6.61018L8.60855 6.0625L8.33447 6.1513" fill="white"/>
<path d="M8.78639 6.61014L8.32031 6.27174L8.48975 6.03894" fill="white"/>
<path d="M8.10938 6.61014L8.57546 6.27174L8.40602 6.03894" fill="white"/>
<path d="M8.10938 6.61018L8.28746 6.0625L8.56153 6.1513" fill="white"/>
<path d="M10.7518 5.56812L10.5737 6.1158L10.8478 6.20459" fill="white"/>
<path d="M10.7523 5.56824L10.9303 6.11592L10.6562 6.20472" fill="white"/>
<path d="M11.2996 5.96631H10.7236V6.25431" fill="white"/>
<path d="M11.2996 5.96619L10.8335 6.30459L10.6641 6.07179" fill="white"/>
<path d="M10.2041 5.96606L10.6702 6.30446L10.8396 6.07166" fill="white"/>
<path d="M10.2041 5.96606H10.7801V6.25406" fill="white"/>
<path d="M11.0903 6.61018L10.9123 6.0625L10.6382 6.1513" fill="white"/>
<path d="M11.0906 6.61014L10.6245 6.27174L10.794 6.03894" fill="white"/>
<path d="M10.4136 6.61014L10.8797 6.27174L10.7102 6.03894" fill="white"/>
<path d="M10.4136 6.61018L10.5917 6.0625L10.8657 6.1513" fill="white"/>
<path d="M10.7518 3.26416L10.5737 3.81184L10.8478 3.90064" fill="white"/>
<path d="M10.7523 3.26428L10.9303 3.81196L10.6562 3.90076" fill="white"/>
<path d="M11.2996 3.66211H10.7236V3.95011" fill="white"/>
<path d="M11.2996 3.66211L10.8335 4.00051L10.6641 3.76771" fill="white"/>
<path d="M10.2041 3.66199L10.6702 4.00039L10.8396 3.76759" fill="white"/>
<path d="M10.2041 3.66199H10.7801V3.94999" fill="white"/>
<path d="M11.0903 4.30622L10.9123 3.75854L10.6382 3.84734" fill="white"/>
<path d="M11.0906 4.30619L10.6245 3.96779L10.794 3.73499" fill="white"/>
<path d="M10.4136 4.30619L10.8797 3.96779L10.7102 3.73499" fill="white"/>
<path d="M10.4136 4.30622L10.5917 3.75854L10.8657 3.84734" fill="white"/>
</g>
<defs>
<clipPath id="clip0_137_33594">
<rect width="36" height="24" fill="white"/>
</clipPath>
</defs>
</svg>
